<svg xmlns="http://www.w3.org/2000/svg" xmlns:xlink="http://www.w3.org/1999/xlink" id="Layer_1" x="0px" y="0px" viewBox="0 0 1056.5 273.4" style="enable-background:new 0 0 1056.5 273.4;" xml:space="preserve" width="1056.5"  height="273.4" > <style type="text/css"> .st0{fill:#FFFFFF;} </style> <g> <g> <g> <rect x="508.3" y="14.9" class="st0" width="31.1" height="184.8"/> <g> <rect x="12.3" y="14.9" class="st0" width="140.5" height="31.1"/> <rect x="121.6" y="14.9" class="st0" width="31.1" height="184.8"/> <rect x="399" y="14.9" class="st0" width="140.5" height="31.1"/> <rect x="175.8" y="14.9" class="st0" width="200" height="31.1"/> <rect x="271.2" y="14.9" class="st0" width="31.1" height="184.8"/> <path class="st0" d="M51,52.4C63.4,63,68.3,75.3,71.4,83c1.8,4.5,7.3,19.3,6.6,40.6c-0.2,6.7-2.1,59.1-27.2,65.4 c-13.1,3.3-27.7-7.1-35.2-16.6c-10.5-13.2-9.7-28.1-9.4-31.7c2.4,8.3,8.7,14.6,16.5,16.1c11.6,2.2,19.9-7.6,21.5-9.4 c5.8-6.8,6.3-14.6,6.8-22.7c0.2-2.4,0.8-13.6-4.4-27.1c-2.5-6.5-4.9-12.9-11.1-18.6c-8.6-8-18.8-9.6-23.2-10 c0-10.7,0-21.5,0-32.2C19.6,37.2,36.2,39.8,51,52.4z"/> <path class="st0" d="M438.2,83.2c-3,0.9-9.8,3.1-16.1,7.2c-1.2,0.8-16.9,11.4-21.7,30.4c-6,23.6,6.3,53.8,27.8,60.9 c1,0.3,20.4,6.3,32.3-6.9c8.2-9.1,9.7-23.9,3.5-36.9c-0.4,0.9-3.5,7.2-10.7,9c-5.8,1.4-11.9-0.7-15.4-4.9 c-5.8-6.9-2.9-17.6,0.7-23.3c7.8-12.5,25.4-11,28.6-10.7c8.9,1,15,5.1,17.4,6.8c8,5.6,11.9,12.7,14.3,17.3 c3.4,6.4,4.7,11.8,6.5,19c1.8,7.4,2.7,13.8,3.1,18.4c1.2-11.4,2.6-23,4.2-34.8c1.1-8.2,2.2-16.2,3.4-24.1 c-2.9-4.9-7.7-11.5-15.3-17.2c-1.4-1-6.8-5.1-15-8.1c-4.9-1.8-8.8-2.6-12.5-3.3c-4.1-0.8-9.1-1.8-15.6-1.8 C455.7,80.1,447.9,80.2,438.2,83.2z"/> <path class="st0" d="M56.2,140.3c5.2,0.1,25.8,1.3,43.7,17.5c18,16.3,21.1,36.7,21.7,41.9c3.3-5.8,13-24.7,7.1-46 c-7.4-26.6-34-38.2-44.4-42.8c-10.3-4.5-19.6-6.3-26.2-7.1C57.5,116,56.8,128.1,56.2,140.3z"/> <path class="st0" d="M238.2,54.4c0,0-29.3,14.9-48.6,34.7c-5.7,5.8-12.2,13.8-13.5,24.8c0,0-0.2,2.1-0.2,4.2 c0.2,18.5,32.3,41.4,43.3,49c13.6,9.4,31,20.8,52.1,32.6c2.5-12.7,5-25.3,7.5-38c-4.7-2.5-12.3-6.6-21.9-11.2 c-11.7-5.6-19.7-8.9-31.3-15.4c-20.3-11.3-21.9-15.8-21.8-18.5c0.1-3.8,3.5-6.5,6.7-9C228.4,94,245.8,87.5,247.1,87 c9.4-3.5,23-8.9,39.8-16.4c-0.9-11.8-1.8-23.7-2.8-35.5C264.9,41.6,249.4,48.7,238.2,54.4z"/> <path class="st0" d="M331.2,44.3c6.2,2,13.9,4.5,22,11.2c1.6,1.4,9.7,8.1,15.6,20.1c3.7,7.7,4.9,14.2,5.8,19.2 c2.1,11.8,1.1,21,0.7,24.1c-0.9,7-1.6,12.9-5.2,19.5c-2.1,3.8-7.8,14.3-20,17.7c-2.3,0.6-14.7,3.7-23.4-4 c-4.9-4.3-6.2-9.9-6.6-11.7c-2.3-10.1,3-18.1,4-19.6c0.2,4.5,2.9,8.4,6.8,10c5.9,2.4,11.3-1.9,12.1-2.6c1.9-1.6,2.7-3.3,3.9-5.6 c0.6-1,3-5.7,3.7-12.7c0.4-3.8,1.4-13.7-4.8-22.8c-4-5.9-9.2-8.8-11.9-10.3c-4.8-2.7-9-3.6-12.8-4.4c-4.7-1-8.6-1.3-16.1-1.5 c-5.9-0.1-13.7-0.1-23,0.2c0-10.9-0.1-21.8-0.1-32.7c3,0,6.9,0.1,11.6,0.4c3.7,0.2,10.1,0.6,17.4,1.5 C318.9,41.4,324.4,42.1,331.2,44.3z"/> <path class="st0" d="M187.3,242.2c-0.2-4.4-0.3-6.6-0.7-9.2c-0.4-2.5-0.8-5.3-2.1-8.7c-0.8-2-1.7-4.4-3.7-6.9 c-3-3.9-6.6-5.7-8.5-6.6c-4.5-2.2-8.7-2.8-11.4-2.8l-48.8,0l-1,0.1l-0.1,34.2c-0.1,1.8,0,5.4,2.3,8.8c2.2,3.2,5.2,4.5,6.6,5.1 c2.5,1.1,4.6,1.2,7.7,1.3c3.8,0.1,8.6,0.2,14.3,0c3.2,0.1,6.4-0.5,9.3-1.6c2-0.7,3.8-1.3,5.6-3c3.4-3,4.2-7.3,4.3-9.6 c0-2.4-0.1-7.5,0-9.9c0-1.5,0-3,0-4.5c1.2,0,2.7,0.3,4.2,0.9c4.6,2,6.4,6.8,7.1,8.4c0.7,1.9,1,3.7,1.2,4.8 c0.3,1.8,0.3,3.2,0.4,5.5c0.1,1.6,0.1,3,0,4c0,1.7,0,3.3,0,5h13.4l0-7.8C187.5,247.9,187.4,245.3,187.3,242.2z M129.5,228.9 l20.7,0c0,0,0,0,0,0c0,0.3,0,0.5,0,0.6c0,0.2,0.1,4.1,0,9.5c0,0.5-0.2,1.8-1.2,2.8c-1.4,1.4-3.4,1.1-3.7,1.1c-1,0-10.4,0-10.6,0 c-0.2,0-0.4,0-1.5,0c-0.3,0-1.6,0.1-2.6-0.9c-1.2-1.2-1-2.9-0.9-3.1L129.5,228.9z"/> <path class="st0" d="M328.7,242.2c-0.2-4.4-0.3-6.6-0.7-9.2c-0.4-2.5-0.8-5.3-2.1-8.7c-0.8-2-1.7-4.4-3.7-6.9 c-3-3.9-6.6-5.7-8.5-6.6c-4.5-2.2-8.7-2.8-11.4-2.8l-48.8,0l-1,0.1l-0.1,34.2c-0.1,1.8,0,5.4,2.3,8.8c2.2,3.2,5.2,4.5,6.6,5.1 c2.5,1.1,4.6,1.2,7.7,1.3c3.8,0.1,8.6,0.2,14.3,0c3.2,0.1,6.4-0.5,9.3-1.6c2-0.7,3.8-1.3,5.6-3c3.4-3,4.2-7.3,4.3-9.6 c0-2.4-0.1-7.5,0-9.9c0-1.5,0-3,0-4.5c1.2,0,2.7,0.3,4.2,0.9c4.6,2,6.4,6.8,7.1,8.4c0.7,1.9,1,3.7,1.2,4.8 c0.3,1.8,0.3,3.2,0.4,5.5c0.1,1.6,0.1,3,0,4c0,1.7,0,3.3,0,5h13.4l0-7.8C328.9,247.9,328.8,245.3,328.7,242.2z M270.9,228.9 l20.7,0c0,0,0,0,0,0c0,0.3,0,0.5,0,0.6c0,0.2,0.1,4.1,0,9.5c0,0.5-0.2,1.8-1.2,2.8c-1.4,1.4-3.4,1.1-3.7,1.1c-1,0-10.4,0-10.6,0 c-0.2,0-0.4,0-1.5,0c-0.3,0-1.6,0.1-2.6-0.9c-1.2-1.2-1-2.9-0.9-3.1L270.9,228.9z"/> </g> </g> <g> <rect x="379.4" y="222.8" class="st0" width="6" height="35.7"/> <rect x="389.9" y="222.8" class="st0" width="6" height="35.7"/> <path class="st0" d="M494.7,223.7c0.6,0.2,2.4,1,3.9,2.5c1.3,1.3,1.8,2.5,2.2,3.4c1.3,2.8,1.1,5.3,1.1,6.5 c-0.1,1.7-0.2,3.9-1.7,6c-0.6,0.9-1.6,2.4-3.5,3c-1.7,0.6-4.6,0.8-6.5-1c-1.8-1.7-2-4.5-0.6-6.7c0,0.1,0.1,0.5,0.4,0.9 c0,0,0.4,0.7,1.2,1.2c1.3,0.8,4.6,0.3,6.1-2.1c1.2-1.9,0.4-4,0.4-4.2c-0.5-1.4-1.5-2.1-2.3-2.7c-1.7-1.2-3.4-1.4-4.3-1.5 c-0.9-0.1-1.7-0.1-2.3-0.1c0-2,0-4-0.1-6C489.9,222.7,492.2,222.7,494.7,223.7z"/> <path class="st0" d="M506.7,223.9c-1.2,0.4-2.8,1-4.5,2.5c-0.5,0.5-1.6,1.4-2.5,3c-1.4,2.5-1.3,4.9-1.3,5.7 c0,0.6,0.3,7.2,4.7,9.1c0.4,0.2,3,1.2,5.2-0.2c1.7-1.1,3.1-3.6,2.2-5.7c-0.6-1.3-1.8-2-2.3-2.2c0,0.1,0.2,1.3-0.7,2.1 c-0.7,0.6-1.6,0.7-2.3,0.3c-0.5-0.3-0.7-0.7-1-1.1c-0.5-0.9-0.5-1.8-0.6-2.3c0-0.5,0-2.1,1-3.5c0.7-1,1.5-1.4,1.9-1.7 c0.6-0.4,1.4-0.7,3.2-1c1.2-0.2,2.9-0.4,5-0.3c0-2,0-4,0-6c-1,0-2.4,0-4,0.2C509.7,223.1,508.4,223.3,506.7,223.9z"/> <rect x="400.4" y="222.8" class="st0" width="24.4" height="6"/> <rect x="418.8" y="222.8" class="st0" width="6" height="35.7"/> <rect x="439.8" y="222.8" class="st0" width="33.8" height="6"/> <rect x="467.6" y="222.8" class="st0" width="6" height="35.7"/> <rect x="514.1" y="222.8" class="st0" width="6" height="35.7"/> <path class="st0" d="M412.4,230.4c0,0-5.7,2.9-9.4,6.7c-1.1,1.1-2.4,2.7-2.6,4.8c0,0,0,0.4,0,0.8c0,3.6,6.2,8,8.4,9.5 c2.6,1.8,6,4,10.1,6.3c0.5-2.4,1-4.9,1.5-7.3c-0.9-0.5-2.4-1.3-4.2-2.2c-2.3-1.1-3.8-1.7-6-3c-3.9-2.2-4.2-3-4.2-3.6 c0-0.7,0.7-1.3,1.3-1.7c3.5-2.6,6.8-3.9,7.1-4c1.8-0.7,4.4-1.7,7.7-3.2c-0.2-2.3-0.4-4.6-0.5-6.8 C417.5,228,414.6,229.3,412.4,230.4z"/> <path class="st0" d="M379.7,237.3c-0.6-1-5.3-8.6-12.7-8.8c-0.9,0-2,0.1-3.2,0.4c1,1.4,2.4,3.8,3,7c0.4,2,0.4,3.7,0.2,5 c-2.1,0.4-4.2,0.8-6.3,1.2c2-3.7,1.3-7.5-1.1-9.1c-0.4-0.3-1.7-1-3.9-0.8c-0.4-1.6-0.8-3.2-1.3-4.8c3.8-2.6,7.3-3.7,9.4-4.1 c1.3-0.3,2.9-0.6,5.1-0.5c2.9,0.2,5,1,6.6,1.7c1.4,0.6,3.4,1.6,5.5,3.2C380.5,230.9,380.1,234.1,379.7,237.3z"/> <path class="st0" d="M458.8,214.2c-0.4-1.7-1.9-2.6-3.4-3.5c-1.7-1-3.2-1.3-4.6-1.6c-2.9-0.6-5.3-0.5-6.4-0.3 c-2,0.2-4.9,0.5-8,2.3c-1.1,0.7-4,2.5-5.7,6c-1,2.1-1.2,4-1.3,4.9c-0.1,1.2-0.1,2.2,0,2.9v33.8h6v-34.6c0-0.9,0.1-3,1.6-5 c1.3-1.7,2.9-2.3,3.9-2.8c2-0.8,3.7-0.9,5.2-0.9c2,0,3.5,0.3,4.2,0.4c0.5,0.1,2.2,0.5,4.2,1.5c1.2,0.6,2.1,1.2,2.8,1.7 C457.5,218.6,459.3,216.5,458.8,214.2z"/> <path class="st0" d="M507.5,214.2c-0.4-1.7-1.9-2.6-3.4-3.5c-1.7-1-3.2-1.3-4.6-1.6c-2.9-0.6-5.3-0.5-6.4-0.3 c-2,0.2-4.9,0.5-8,2.3c-1.1,0.7-4,2.5-5.7,6c-1,2.1-1.2,4-1.3,4.9c-0.1,1.2-0.1,2.2,0,2.9v33.8h6v-34.6c0-0.9,0.1-3,1.6-5 c1.3-1.7,2.9-2.3,3.9-2.8c2-0.8,3.7-0.9,5.2-0.9c2,0,3.5,0.3,4.2,0.4c0.5,0.1,2.2,0.5,4.2,1.5c1.2,0.6,2.1,1.2,2.8,1.7 C506.2,218.6,508.1,216.5,507.5,214.2z"/> <path class="st0" d="M358,243.2c7.8-3.4,15.5-6.9,23.3-10.3c0.5,2.3,1,4.6,1.4,6.9c-7.5,2.4-14.9,4.9-22.4,7.3 C359.6,245.8,358.8,244.5,358,243.2z"/> <path class="st0" d="M469.1,236.3c-0.4-0.5-1.5-1.6-3-1.9c-2.3-0.4-4.1,1.1-4.7,1.7c-0.2,0.2-1.2,1.1-2,2.7 c-0.6,1.2-0.7,2.4-0.8,3.1c-0.4-1.5-1-2.6-1.4-3.2c-1.8-2.6-5.2-4.6-8.7-4.2c-3,0.3-4.9,2.2-5.3,2.5c-5,4.9-4.1,16.1,1.1,19 c1.8,1,4.7,1.4,6.6-0.1c2.1-1.6,2.7-5.2,1.1-7.3c-0.8-1.1-2-1.5-2.7-1.6c0.3,0.9,0.1,1.8-0.5,2.3c-0.1,0.1-0.5,0.4-1.1,0.4 c-0.6,0-1-0.3-1.2-0.4c-1-0.7-1.4-2.6-1.1-4.1c0.3-2,1.9-3.5,4.3-3.8c2.3-0.3,4,1.3,4.4,1.7c1.4,1.3,1.9,3.1,2.4,4.9 c0.3,1,0.4,1.8,0.4,2.4c1.6-0.5,3.2-1,4.8-1.5c0-0.5,0-1.3,0-2.3c0.1-1.6,0.2-2.5,0.7-3.6c0.2-0.5,1-2.1,2.2-2.1 c0.6,0,1.1,0.5,1.6,1c0.9,1,1.2,2,1.4,2.9c0.2,0.8,0.4,2,0.4,3.5c0.5-1.5,1.1-3.5,1.3-6C469.5,239.9,469.3,237.9,469.1,236.3z"/> <path class="st0" d="M495.2,234.2"/> <path class="st0" d="M533.1,222.8c-4.3-0.1-8.6,3.2-8.6,7.7c0,4.5,4.3,7.8,8.6,7.7c4-0.1,8-3.3,8.1-7.6 C541.3,226.2,537.2,222.9,533.1,222.8z M531.9,234.2c-0.1,0-1.9-0.8-2.2-2.5c-0.3-1.7,1-3.6,2.9-3.9c1.8-0.3,3.6,1,3.9,2.7 c0.2,1.1-0.1,2.3-1,3.1C534,234.9,532,234.2,531.9,234.2z"/> <path class="st0" d="M546,255.7c0-0.4,0-0.8,0-0.8c-0.2-2.1-1.5-3.7-2.6-4.8c-3.7-3.8-9.4-6.7-9.4-6.7c-2.2-1.1-5.2-2.5-8.9-3.7 c0,2.4,0,4.7,0,7.1c1,0.3,2.1,0.7,3.5,1.2c1.6,0.6,2.8,1.2,5,2.2l0,0c1.2,0.6,2.5,1.3,3.8,2c2.3,1.4,2.9,2.1,3.1,2.8 c0.1,0.2,0.1,0.3,0.1,0.3c0.4,1.3-0.2,2.6-0.5,3.1c1.6,0,3.2,0,4.9,0C545.6,257.5,546,256.6,546,255.7z"/> </g> </g> </g> </svg>